<svg xmlns="http://www.w3.org/2000/svg" xmlns:xlink="http://www.w3.org/1999/xlink" viewBox="0 0 1024 1024"><defs><filter id="a" width="200%" height="200%" x="-50%" y="-50%"><feOffset dx="12" dy="12" result="offset"/><feFlood flood-color="#000" result="color"/><feComposite in="color" in2="offset" operator="in" result="shadow"/><feMerge><feMergeNode in="shadow"/><feMergeNode in="SourceGraphic"/></feMerge></filter></defs><circle cx="120" cy="120" r="60" fill="#06f" stroke="#000" stroke-width="5"/><circle cx="904" cy="904" r="80" fill="#f36" stroke="#000" stroke-width="5"/><path fill="gold" stroke="#000" stroke-width="5" d="m834.645 68.763 96.592 25.882-25.882 96.592-96.592-25.882z"/><path fill="#06f" stroke="#000" stroke-width="5" d="m53.662 827.554 78.784-13.892 13.892 78.784-78.784 13.892z"/><g stroke="#000" transform="rotate(-8 1520.067 -1187.06)"><rect width="580" height="420" fill="#f36" stroke-width="5" rx="4"/><path stroke-width="3" d="M40 60h500M40 120h360M40 180h420"/><path fill="none" stroke-linecap="round" stroke-linejoin="round" stroke-width="4" d="m480 100 30 40 30-40"/></g><g transform="rotate(5 -2847.49 3107.49)"><rect width="560" height="400" fill="gold" stroke="#000" stroke-width="5" rx="4"/><rect width="140" height="80" x="40" y="50" fill="#06f" stroke="#000" stroke-width="3" rx="3"/><rect width="320" height="24" x="200" y="55" opacity=".2" rx="2"/><rect width="280" height="24" x="200" y="90" opacity=".2" rx="2"/><rect width="300" height="24" x="200" y="125" opacity=".2" rx="2"/><circle cx="60" cy="170" r="20" fill="#f36" stroke="#000" stroke-width="3"/><circle cx="120" cy="170" r="20" fill="#06f" stroke="#000" stroke-width="3"/><circle cx="180" cy="170" r="20" fill="gold" stroke="#000" stroke-width="3"/></g><g transform="translate(220 300)"><rect width="600" height="440" fill="#06f" stroke="#000" stroke-width="6" filter="url(#a)" rx="4"/><rect width="600" height="100" fill="gold" rx="4"/><path stroke="#000" stroke-width="4" d="M0 100h600"/><path fill="none" stroke="#000" stroke-linecap="round" stroke-linejoin="round" stroke-width="8" d="m180 30 120 50 120-50"/><circle cx="80" cy="180" r="35" fill="#fff8e7" stroke="#000" stroke-width="4"/><circle cx="80" cy="170" r="18"/><path fill="none" stroke="#000" stroke-linecap="round" stroke-width="4" d="M55 200q25-15 50 0"/><rect width="420" height="35" x="140" y="165" fill="#fff8e7" stroke="#000" stroke-width="3" rx="4"/><circle cx="80" cy="270" r="35" fill="#f36" stroke="#000" stroke-width="4"/><rect width="30" height="40" x="65" y="255" fill="#fff8e7" stroke="#000" stroke-width="3" rx="4"/><rect width="410" height="35" x="140" y="255" fill="#fff8e7" stroke="#000" stroke-width="3" rx="4"/><circle cx="80" cy="360" r="35" fill="gold" stroke="#000" stroke-width="4"/><rect width="40" height="30" x="60" y="345" fill="#fff8e7" stroke="#000" stroke-width="3" rx="3"/><path fill="none" stroke="#000" stroke-linejoin="round" stroke-width="3" d="m60 345 20 15 20-15"/><rect width="400" height="35" x="140" y="345" fill="#fff8e7" stroke="#000" stroke-width="3" rx="4"/><circle cx="520" cy="180" r="8" fill="#f36" stroke="#000" stroke-width="2"/><circle cx="545" cy="180" r="8" fill="gold" stroke="#000" stroke-width="2"/><circle cx="520" cy="270" r="8" fill="gold" stroke="#000" stroke-width="2"/><circle cx="545" cy="270" r="8" fill="#fff8e7" stroke="#000" stroke-width="2"/></g><g stroke="#000" transform="rotate(12 -506.293 3420.028)"><rect width="120" height="80" fill="#f36" stroke-width="4" rx="3"/><path stroke-width="3" d="M15 25h90M15 45h60"/></g><g stroke="#000" transform="rotate(-6 6929.21 -784.868)"><rect width="100" height="70" fill="gold" stroke-width="4" rx="3"/><circle cx="30" cy="35" r="12" fill="#06f" stroke-width="2"/></g><path fill="gold" stroke="#000" stroke-width="4" d="m500 100 40 60h-80Z"/><circle cx="850" cy="750" r="50" fill="#06f" stroke="#000" stroke-width="5"/><path fill="#f36" stroke="#000" stroke-width="4" d="m162.07 641.549 56.381 20.52-20.52 56.382-56.382-20.52z"/></svg>